<?xml version="1.0" encoding="UTF-8" standalone="no"?>
<!-- Created with Inkscape (http://www.inkscape.org/) -->

<svg
   xmlns:dc="http://purl.org/dc/elements/1.1/"
   xmlns:cc="http://creativecommons.org/ns#"
   xmlns:rdf="http://www.w3.org/1999/02/22-rdf-syntax-ns#"
   xmlns:svg="http://www.w3.org/2000/svg"
   xmlns="http://www.w3.org/2000/svg"
   xmlns:sodipodi="http://sodipodi.sourceforge.net/DTD/sodipodi-0.dtd"
   xmlns:inkscape="http://www.inkscape.org/namespaces/inkscape"
   version="1.1"
   id="svg2"
   xml:space="preserve"
   width="8.8999996cm"
   height="14cm"
   viewBox="0 0 336.37794 529.13385"
   sodipodi:docname="Rocketbook-Base.svg"
   inkscape:version="0.92.3 (2405546, 2018-03-11)"><metadata
     id="metadata8"><rdf:RDF><cc:Work
         rdf:about=""><dc:format>image/svg+xml</dc:format><dc:type
           rdf:resource="http://purl.org/dc/dcmitype/StillImage" /><dc:title></dc:title></cc:Work></rdf:RDF></metadata><defs
     id="defs6"><clipPath
       clipPathUnits="userSpaceOnUse"
       id="clipPath26"><path
         d="m 29.24,51.574 h 536.8 V 788.536 H 29.24 Z"
         id="path24"
         inkscape:connector-curvature="0"
         style="clip-rule:evenodd" /></clipPath><clipPath
       clipPathUnits="userSpaceOnUse"
       id="clipPath32"><path
         d="M 0,0 H 595 V 842 H 0 Z"
         id="path30"
         inkscape:connector-curvature="0" /></clipPath><clipPath
       clipPathUnits="userSpaceOnUse"
       id="clipPath42"><path
         d="M 36.327,58.66 H 558.953 V 781.449 H 36.327 Z"
         id="path40"
         inkscape:connector-curvature="0"
         style="clip-rule:evenodd" /></clipPath><clipPath
       clipPathUnits="userSpaceOnUse"
       id="clipPath48"><path
         d="M 0,0 H 595 V 842 H 0 Z"
         id="path46"
         inkscape:connector-curvature="0" /></clipPath><clipPath
       clipPathUnits="userSpaceOnUse"
       id="clipPath58"><path
         d="M 0,0 H 595 V 842 H 0 Z"
         id="path56"
         inkscape:connector-curvature="0" /></clipPath><clipPath
       clipPathUnits="userSpaceOnUse"
       id="clipPath70"><path
         d="m 77.4115,70.361 -4.961,11.31 c -0.275,0.626 -1.163,0.626 -1.438,0 l -4.961,-11.31 c -0.168,-0.382 -0.288,-0.656 -0.313,-0.938 -0.025,-0.282 0.097,-0.531 0.345,-0.64 0.236,-0.104 0.501,-0.024 0.692,0.185 0.191,0.21 0.311,0.483 0.478,0.865 l 4.478,10.207 4.477,-10.207 c 0.168,-0.382 0.287,-0.655 0.479,-0.865 0.19,-0.209 0.456,-0.289 0.691,-0.185 0.249,0.109 0.371,0.358 0.346,0.64 -0.025,0.282 -0.145,0.556 -0.313,0.938"
         id="path68"
         inkscape:connector-curvature="0"
         style="clip-rule:evenodd" /></clipPath><clipPath
       clipPathUnits="userSpaceOnUse"
       id="clipPath76"><path
         d="M 0,0 H 595 V 842 H 0 Z"
         id="path74"
         inkscape:connector-curvature="0" /></clipPath><clipPath
       clipPathUnits="userSpaceOnUse"
       id="clipPath86"><path
         d="m 71.7207,69.8332 c -0.193,0 -0.323,-0.065 -0.4,-0.168 -0.078,-0.116 -0.091,-0.245 -0.091,-0.413 v -6.844 c 0,-0.168 0.013,-0.297 0.091,-0.413 0.077,-0.103 0.207,-0.168 0.413,-0.168 0.194,0 0.323,0.065 0.401,0.168 0.077,0.116 0.09,0.245 0.09,0.413 v 6.844 c 0,0.168 -0.013,0.297 -0.09,0.413 -0.078,0.103 -0.207,0.168 -0.414,0.168"
         id="path84"
         inkscape:connector-curvature="0"
         style="clip-rule:evenodd" /></clipPath><clipPath
       clipPathUnits="userSpaceOnUse"
       id="clipPath92"><path
         d="M 0,0 H 595 V 842 H 0 Z"
         id="path90"
         inkscape:connector-curvature="0" /></clipPath><clipPath
       clipPathUnits="userSpaceOnUse"
       id="clipPath102"><path
         d="m 69.1978,69.8332 c -0.194,0 -0.323,-0.065 -0.401,-0.168 -0.077,-0.116 -0.09,-0.245 -0.09,-0.413 v -4.618 c 0,-0.168 0.013,-0.298 0.09,-0.414 0.078,-0.103 0.207,-0.168 0.414,-0.168 0.193,0 0.323,0.065 0.4,0.168 0.078,0.116 0.091,0.246 0.091,0.414 v 4.618 c 0,0.168 -0.013,0.297 -0.091,0.413 -0.077,0.103 -0.207,0.168 -0.413,0.168"
         id="path100"
         inkscape:connector-curvature="0"
         style="clip-rule:evenodd" /></clipPath><clipPath
       clipPathUnits="userSpaceOnUse"
       id="clipPath108"><path
         d="M 0,0 H 595 V 842 H 0 Z"
         id="path106"
         inkscape:connector-curvature="0" /></clipPath><clipPath
       clipPathUnits="userSpaceOnUse"
       id="clipPath118"><path
         d="m 74.2418,69.8332 c -0.194,0 -0.323,-0.065 -0.4,-0.168 -0.078,-0.116 -0.091,-0.245 -0.091,-0.413 v -4.618 c 0,-0.168 0.013,-0.298 0.091,-0.414 0.077,-0.103 0.206,-0.168 0.413,-0.168 0.194,0 0.323,0.065 0.4,0.168 0.078,0.116 0.091,0.246 0.091,0.414 v 4.618 c 0,0.168 -0.013,0.297 -0.091,0.413 -0.077,0.103 -0.206,0.168 -0.413,0.168"
         id="path116"
         inkscape:connector-curvature="0"
         style="clip-rule:evenodd" /></clipPath><clipPath
       clipPathUnits="userSpaceOnUse"
       id="clipPath124"><path
         d="M 0,0 H 595 V 842 H 0 Z"
         id="path122"
         inkscape:connector-curvature="0" /></clipPath><clipPath
       clipPathUnits="userSpaceOnUse"
       id="clipPath134"><path
         d="M 0,0 H 595 V 842 H 0 Z"
         id="path132"
         inkscape:connector-curvature="0" /></clipPath><clipPath
       clipPathUnits="userSpaceOnUse"
       id="clipPath146"><path
         d="m 207.1432,65.4306 c -0.143,-0.095 -0.323,-0.14 -0.568,-0.14 v 0 c -0.327,0 -0.702,0.08 -1.1,0.164 -0.433,0.091 -0.882,0.186 -1.32,0.186 -0.438,0 -0.886,-0.095 -1.32,-0.186 -0.696,-0.147 -1.333,-0.247 -1.668,-0.024 -1.8,1.199 -3.01,3.748 -3.01,6.343 0,2.258 0.848,3.62 2.591,4.163 0.364,0.113 0.728,0.17 1.081,0.17 1.177,0 1.922,-0.639 1.926,-0.642 0.227,-0.205 0.573,-0.205 0.8,0 0.007,0.007 0.746,0.642 1.925,0.642 0.354,0 0.718,-0.057 1.081,-0.17 1.744,-0.543 2.592,-1.905 2.592,-4.163 0,-2.595 -1.21,-5.144 -3.01,-6.343 m 0.774,11.647 c -0.479,0.149 -0.962,0.224 -1.437,0.224 -0.844,0 -1.522,-0.237 -1.993,-0.475 -0.143,0.597 -0.427,1.429 -0.992,2.379 -1.086,1.828 -1.788,2.44 -1.817,2.465 -0.2,0.171 -0.498,0.148 -0.671,-0.051 -0.172,-0.198 -0.151,-0.5 0.046,-0.673 0.007,-0.006 0.631,-0.564 1.621,-2.229 0.392,-0.659 0.629,-1.25 0.774,-1.724 -0.432,0.17 -0.977,0.308 -1.619,0.308 -0.474,0 -0.957,-0.075 -1.436,-0.224 -2.276,-0.709 -3.431,-2.494 -3.431,-5.304 0,-3.024 1.391,-5.904 3.542,-7.337 0.344,-0.229 0.746,-0.341 1.231,-0.341 0.451,0 0.907,0.097 1.347,0.19 0.391,0.082 0.76,0.16 1.073,0.16 0.313,0 0.682,-0.078 1.073,-0.16 0.44,-0.093 0.896,-0.19 1.347,-0.19 v 0 c 0.485,0 0.887,0.112 1.231,0.341 2.151,1.433 3.542,4.313 3.542,7.337 0,2.81 -1.154,4.595 -3.431,5.304"
         id="path144"
         inkscape:connector-curvature="0"
         style="clip-rule:evenodd" /></clipPath><clipPath
       clipPathUnits="userSpaceOnUse"
       id="clipPath152"><path
         d="M 0,0 H 595 V 842 H 0 Z"
         id="path150"
         inkscape:connector-curvature="0" /></clipPath><clipPath
       clipPathUnits="userSpaceOnUse"
       id="clipPath162"><path
         d="M 0,0 H 595 V 842 H 0 Z"
         id="path160"
         inkscape:connector-curvature="0" /></clipPath><clipPath
       clipPathUnits="userSpaceOnUse"
       id="clipPath174"><path
         d="m 342.7177,70.8171 c -0.168,-0.169 -0.321,-0.312 -0.45,-0.436 -0.228,-0.215 -0.392,-0.37 -0.493,-0.513 -0.101,-0.143 -0.193,-0.35 -0.319,-0.636 -0.073,-0.164 -0.157,-0.355 -0.26,-0.571 -0.204,-0.429 -0.493,-0.647 -0.859,-0.647 v 0 c -0.251,0.001 -0.534,0.106 -0.795,0.297 -0.585,0.429 -1.061,1.096 -1.419,1.986 -0.012,0.17 -0.014,0.275 -0.014,0.279 -0.002,0.329 -0.269,0.593 -0.597,0.593 h -0.004 c -0.33,-0.001 -0.596,-0.27 -0.594,-0.6 0,-0.036 0.005,-0.397 0.073,-0.927 -0.085,-0.749 -0.294,-1.382 -0.633,-1.88 -0.454,-0.666 -1.109,-0.789 -1.676,-0.223 -0.169,0.169 -0.312,0.321 -0.436,0.451 -0.214,0.227 -0.369,0.391 -0.513,0.493 -0.143,0.101 -0.35,0.192 -0.635,0.319 -0.164,0.072 -0.356,0.157 -0.571,0.26 -0.345,0.164 -0.554,0.384 -0.622,0.653 -0.075,0.297 0.024,0.662 0.272,1.001 0.494,0.675 1.305,1.205 2.412,1.577 0.224,0.075 0.359,0.302 0.319,0.534 -0.039,0.23 -0.238,0.397 -0.471,0.397 h -0.008 l -0.137,-0.001 c -1.105,0 -2.001,0.229 -2.664,0.68 -0.347,0.237 -0.562,0.547 -0.591,0.852 -0.026,0.277 0.098,0.555 0.368,0.825 0.168,0.168 0.319,0.311 0.45,0.434 0.227,0.216 0.392,0.371 0.493,0.514 0.101,0.143 0.192,0.35 0.319,0.636 0.073,0.164 0.157,0.356 0.259,0.571 0.205,0.429 0.494,0.647 0.86,0.647 0.251,0 0.534,-0.106 0.795,-0.297 0.675,-0.494 1.205,-1.306 1.577,-2.413 0.075,-0.224 0.302,-0.359 0.534,-0.319 0.232,0.04 0.401,0.244 0.397,0.479 -0.02,1.168 0.209,2.111 0.68,2.802 0.455,0.667 1.11,0.789 1.676,0.223 0.168,-0.168 0.313,-0.321 0.436,-0.451 0.214,-0.227 0.369,-0.391 0.512,-0.492 0.144,-0.101 0.351,-0.193 0.638,-0.32 0.164,-0.073 0.355,-0.157 0.569,-0.259 0.344,-0.164 0.554,-0.384 0.622,-0.654 0.075,-0.297 -0.024,-0.662 -0.272,-1 -0.494,-0.675 -1.306,-1.206 -2.413,-1.578 -0.223,-0.075 -0.359,-0.301 -0.319,-0.534 0.041,-0.232 0.251,-0.408 0.48,-0.397 l 0.137,0.001 c 1.104,0 2.001,-0.228 2.663,-0.68 0.348,-0.236 0.563,-0.547 0.592,-0.852 0.025,-0.277 -0.098,-0.554 -0.368,-0.824 m 1.32,0.913 c -0.056,0.59 -0.422,1.156 -1.005,1.553 -0.451,0.308 -0.978,0.532 -1.576,0.672 0.516,0.332 0.938,0.72 1.26,1.161 0.417,0.569 0.573,1.225 0.428,1.799 -0.097,0.384 -0.373,0.919 -1.138,1.283 -0.223,0.106 -0.423,0.194 -0.593,0.27 -0.2,0.089 -0.407,0.18 -0.473,0.226 -0.065,0.047 -0.22,0.21 -0.37,0.369 -0.128,0.135 -0.279,0.295 -0.454,0.47 -0.426,0.426 -0.92,0.651 -1.429,0.651 -0.651,0 -1.275,-0.369 -1.713,-1.012 -0.308,-0.452 -0.533,-0.979 -0.673,-1.576 -0.332,0.516 -0.72,0.937 -1.16,1.26 -0.431,0.315 -0.901,0.481 -1.36,0.481 -0.734,0 -1.361,-0.434 -1.722,-1.191 -0.107,-0.224 -0.196,-0.424 -0.271,-0.595 -0.088,-0.199 -0.18,-0.405 -0.226,-0.471 -0.047,-0.066 -0.211,-0.221 -0.37,-0.371 -0.135,-0.129 -0.293,-0.278 -0.468,-0.453 -0.599,-0.599 -0.681,-1.196 -0.644,-1.59 0.056,-0.59 0.422,-1.155 1.005,-1.553 0.451,-0.307 0.978,-0.532 1.576,-0.672 -0.516,-0.332 -0.938,-0.72 -1.26,-1.16 -0.417,-0.57 -0.573,-1.226 -0.428,-1.799 0.097,-0.385 0.373,-0.92 1.138,-1.283 0.224,-0.107 0.424,-0.196 0.595,-0.271 0.199,-0.089 0.405,-0.18 0.47,-0.225 0.066,-0.047 0.221,-0.211 0.371,-0.37 0.128,-0.135 0.278,-0.294 0.454,-0.47 0.426,-0.425 0.92,-0.65 1.428,-0.65 0.651,0 1.276,0.369 1.714,1.011 0.108,0.158 0.201,0.329 0.289,0.505 0.147,-0.418 0.333,-0.845 0.574,-1.252 1.013,-1.705 2.522,-3.458 2.586,-3.532 0.118,-0.136 0.285,-0.206 0.452,-0.206 0.139,0 0.278,0.047 0.391,0.145 0.249,0.215 0.277,0.593 0.061,0.843 -0.015,0.017 -1.504,1.748 -2.463,3.36 -0.13,0.22 -0.241,0.45 -0.337,0.681 0.091,-0.08 0.184,-0.157 0.28,-0.228 0.43,-0.315 0.901,-0.481 1.36,-0.481 v 0 c 0.734,0 1.362,0.434 1.722,1.191 0.107,0.225 0.195,0.425 0.271,0.595 0.088,0.2 0.179,0.406 0.226,0.472 0.046,0.066 0.21,0.221 0.368,0.37 0.136,0.129 0.295,0.279 0.47,0.454 0.599,0.599 0.68,1.195 0.644,1.589"
         id="path172"
         inkscape:connector-curvature="0"
         style="clip-rule:evenodd" /></clipPath><clipPath
       clipPathUnits="userSpaceOnUse"
       id="clipPath180"><path
         d="M 0,0 H 595 V 842 H 0 Z"
         id="path178"
         inkscape:connector-curvature="0" /></clipPath><clipPath
       clipPathUnits="userSpaceOnUse"
       id="clipPath190"><path
         d="m 137.7046,65.256 -6.176,8.983 h 3.635 l 0.79,-3.86 c 0.046,-0.227 0.245,-0.382 0.467,-0.382 0.032,0 0.064,0.003 0.097,0.009 0.258,0.053 0.425,0.306 0.372,0.564 l -0.75,3.669 h 3.13 l -0.75,-3.669 c -0.053,-0.258 0.114,-0.511 0.372,-0.564 0.033,-0.006 0.065,-0.009 0.097,-0.009 0.222,0 0.421,0.155 0.467,0.382 l 0.79,3.86 h 3.635 z m -4.749,12.276 1.473,-2.337 h -2.946 z m 5.69,0.412 h 2.937 l -1.468,-2.33 z m -3.351,-2.33 -1.468,2.33 h 2.937 z m 2.41,2.031 1.543,-2.45 h -3.086 z m 6.222,-2.45 h -2.946 l 1.473,2.337 z m 1.513,-0.159 -2.41,3.824 c -0.109,0.173 -0.3,0.279 -0.505,0.279 h -9.64 c -0.205,0 -0.396,-0.106 -0.505,-0.279 l -2.41,-3.824 c -0.127,-0.202 -0.122,-0.46 0.013,-0.657 l 7.23,-10.516 c 0.111,-0.162 0.295,-0.259 0.492,-0.259 0.197,0 0.381,0.097 0.492,0.259 l 7.23,10.516 c 0.135,0.197 0.14,0.455 0.013,0.657 z"
         id="path188"
         inkscape:connector-curvature="0"
         style="clip-rule:evenodd" /></clipPath><clipPath
       clipPathUnits="userSpaceOnUse"
       id="clipPath196"><path
         d="M 0,0 H 595 V 842 H 0 Z"
         id="path194"
         inkscape:connector-curvature="0" /></clipPath><clipPath
       clipPathUnits="userSpaceOnUse"
       id="clipPath206"><path
         d="M 0,0 H 595 V 842 H 0 Z"
         id="path204"
         inkscape:connector-curvature="0" /></clipPath><clipPath
       clipPathUnits="userSpaceOnUse"
       id="clipPath218"><path
         d="m 276.4519,67.3541 h -11.687 v 0.803 c 0,0.46 0.29,0.886 0.757,1.111 1.071,0.518 1.764,1.62 1.764,2.809 v 2.427 c 0,1.833 1.49,3.323 3.322,3.323 1.833,0 3.323,-1.49 3.323,-3.323 v -2.427 c 0,-1.189 0.693,-2.291 1.764,-2.809 0.467,-0.225 0.757,-0.651 0.757,-1.111 z m -5.844,-2.27 c -0.711,0 -1.316,0.448 -1.557,1.075 h 3.115 c -0.241,-0.627 -0.846,-1.075 -1.558,-1.075 z m 0,15.279 c 0.92,0 1.668,-0.746 1.673,-1.665 -0.518,0.207 -1.082,0.324 -1.673,0.324 -0.59,0 -1.154,-0.117 -1.672,-0.324 0.005,0.919 0.753,1.665 1.672,1.665 z m 5.607,-10.018 c -0.662,0.319 -1.089,0.999 -1.089,1.732 v 2.427 c 0,1.511 -0.747,2.847 -1.889,3.667 v 0.519 c 0,1.45 -1.179,2.629 -2.629,2.629 -1.449,0 -2.628,-1.179 -2.628,-2.629 v -0.519 c -1.142,-0.82 -1.889,-2.156 -1.889,-3.667 v -2.427 c 0,-0.733 -0.428,-1.413 -1.089,-1.732 -0.884,-0.427 -1.432,-1.265 -1.432,-2.188 v -1.4 c 0,-0.33 0.267,-0.598 0.597,-0.598 h 3.884 c 0.271,-1.162 1.314,-2.031 2.557,-2.031 1.244,0 2.286,0.869 2.558,2.031 h 3.883 c 0.33,0 0.598,0.268 0.598,0.598 v 1.4 c 0,0.923 -0.549,1.761 -1.432,2.188 z"
         id="path216"
         inkscape:connector-curvature="0"
         style="clip-rule:evenodd" /></clipPath><clipPath
       clipPathUnits="userSpaceOnUse"
       id="clipPath224"><path
         d="M 0,0 H 595 V 842 H 0 Z"
         id="path222"
         inkscape:connector-curvature="0" /></clipPath><clipPath
       clipPathUnits="userSpaceOnUse"
       id="clipPath234"><path
         d="M 0,0 H 595 V 842 H 0 Z"
         id="path232"
         inkscape:connector-curvature="0" /></clipPath><clipPath
       clipPathUnits="userSpaceOnUse"
       id="clipPath246"><path
         d="m 406.9115,71.441 c -0.141,-0.137 -0.205,-0.335 -0.171,-0.529 l 0.698,-4.065 -3.651,1.919 c -0.087,0.046 -0.182,0.069 -0.278,0.069 -0.096,0 -0.191,-0.023 -0.278,-0.069 l -3.651,-1.919 0.699,4.065 c 0.033,0.194 -0.031,0.392 -0.173,0.53 l -2.959,2.878 4.086,0.594 c 0.194,0.028 0.362,0.151 0.449,0.327 l 1.827,3.693 1.827,-3.693 c 0.087,-0.176 0.255,-0.299 0.45,-0.327 l 4.078,-0.593 z m 4.369,3.038 c 0,0.398 -0.259,0.866 -0.995,0.988 l -4.017,0.585 -1.796,3.631 c -0.206,0.436 -0.566,0.696 -0.963,0.696 -0.397,0 -0.757,-0.26 -0.958,-0.686 l -1.8,-3.641 -4.025,-0.586 c -0.728,-0.116 -0.987,-0.586 -0.987,-0.987 0,-0.415 0.282,-0.72 0.397,-0.842 l 2.912,-2.833 -0.691,-4.016 c -0.014,-0.089 -0.023,-0.167 -0.023,-0.257 0,-0.597 0.403,-1.029 0.959,-1.029 0.272,0 0.489,0.1 0.623,0.172 l 3.593,1.889 3.571,-1.877 c 0.207,-0.12 0.43,-0.184 0.645,-0.184 0.551,0 0.951,0.432 0.951,1.029 0,0.092 -0.002,0.171 -0.018,0.273 l -0.687,4.001 2.908,2.837 c 0.266,0.264 0.401,0.546 0.401,0.837 z"
         id="path244"
         inkscape:connector-curvature="0"
         style="clip-rule:evenodd" /></clipPath><clipPath
       clipPathUnits="userSpaceOnUse"
       id="clipPath252"><path
         d="M 0,0 H 595 V 842 H 0 Z"
         id="path250"
         inkscape:connector-curvature="0" /></clipPath><clipPath
       clipPathUnits="userSpaceOnUse"
       id="clipPath262"><path
         d="M 0,0 H 595 V 842 H 0 Z"
         id="path260"
         inkscape:connector-curvature="0" /></clipPath><clipPath
       clipPathUnits="userSpaceOnUse"
       id="clipPath274"><path
         d="m 469.9567,65.9282 c -3.982,0 -6.174,2.175 -6.174,6.124 0,1.667 0.562,3.427 1.54,4.892 l 0.825,-0.699 c -0.821,-1.271 -1.29,-2.774 -1.29,-4.193 0,-3.397 1.668,-5.049 5.099,-5.049 3.431,0 5.099,1.652 5.099,5.049 0,1.42 -0.469,2.922 -1.29,4.193 l 0.825,0.699 c 0.978,-1.465 1.54,-3.225 1.54,-4.892 0,-3.949 -2.192,-6.124 -6.174,-6.124 m 5.367,11.638 0.955,0.811 c 0.202,0.17 0.227,0.472 0.056,0.673 -0.171,0.201 -0.472,0.226 -0.674,0.056 l -2.747,-2.331 c -0.201,-0.171 -0.226,-0.472 -0.055,-0.673 0.064,-0.075 0.147,-0.116 0.235,-0.141 0.791,-1.178 1.245,-2.585 1.245,-3.909 0,-2.996 -1.352,-4.332 -4.382,-4.332 -3.03,0 -4.382,1.336 -4.382,4.332 0,1.324 0.454,2.731 1.245,3.909 0.088,0.025 0.172,0.066 0.236,0.141 0.17,0.201 0.146,0.502 -0.056,0.673 l -2.747,2.331 c -0.201,0.17 -0.502,0.145 -0.674,-0.056 -0.17,-0.201 -0.146,-0.503 0.056,-0.673 l 0.955,-0.811 c -1.119,-1.637 -1.763,-3.627 -1.763,-5.514 0,-4.5 2.599,-7.08 7.13,-7.08 4.531,0 7.13,2.58 7.13,7.08 0,1.886 -0.643,3.876 -1.763,5.514"
         id="path272"
         inkscape:connector-curvature="0"
         style="clip-rule:evenodd" /></clipPath><clipPath
       clipPathUnits="userSpaceOnUse"
       id="clipPath280"><path
         d="M 0,0 H 595 V 842 H 0 Z"
         id="path278"
         inkscape:connector-curvature="0" /></clipPath><clipPath
       clipPathUnits="userSpaceOnUse"
       id="clipPath290"><path
         d="M 0,0 H 595 V 842 H 0 Z"
         id="path288"
         inkscape:connector-curvature="0" /></clipPath><clipPath
       clipPathUnits="userSpaceOnUse"
       id="clipPath302"><path
         d="m 509.82,107.79 h 2.0967 v -2.0967 H 509.82 Z m 2.0967,0 h 2.0966 v -2.0967 h -2.0966 z m 2.0966,0 h 2.0967 v -2.0967 h -2.0967 z m 2.0967,0 h 2.0967 v -2.0967 H 516.11 Z m 2.0967,0 h 2.0966 v -2.0967 h -2.0966 z m 2.0966,0 H 522.4 v -2.0967 h -2.0967 z m 2.0967,0 h 2.0967 v -2.0967 H 522.4 Z m 4.1933,0 h 2.0967 v -2.0967 h -2.0967 z m 2.0967,0 h 2.0967 v -2.0967 H 528.69 Z m 4.1933,0 h 2.0967 v -2.0967 h -2.0967 z m 6.29,0 h 2.0967 v -2.0967 h -2.0967 z m 2.0967,0 h 2.0967 v -2.0967 H 541.27 Z m 2.0967,0 h 2.0966 v -2.0967 h -2.0966 z m 2.0966,0 h 2.0967 v -2.0967 h -2.0967 z m 2.0967,0 h 2.0967 v -2.0967 H 547.56 Z m 2.0967,0 h 2.0966 v -2.0967 h -2.0966 z m 2.0966,0 h 2.0967 v -2.0967 h -2.0967 z M 509.82,105.6933 h 2.0967 v -2.0967 H 509.82 Z m 12.58,0 h 2.0967 v -2.0967 H 522.4 Z m 6.29,0 h 2.0967 v -2.0967 H 528.69 Z m 4.1933,0 h 2.0967 v -2.0967 h -2.0967 z m 6.29,0 h 2.0967 v -2.0967 h -2.0967 z m 12.58,0 h 2.0967 v -2.0967 h -2.0967 z M 509.82,103.5966 h 2.0967 V 101.5 H 509.82 Z m 4.1933,0 H 516.11 V 101.5 h -2.0967 z m 2.0967,0 h 2.0967 V 101.5 H 516.11 Z m 2.0967,0 h 2.0966 V 101.5 h -2.0966 z m 4.1933,0 h 2.0967 V 101.5 H 522.4 Z m 10.4833,0 H 534.98 V 101.5 h -2.0967 z m 6.29,0 H 541.27 V 101.5 h -2.0967 z m 4.1934,0 h 2.0966 V 101.5 h -2.0966 z m 2.0966,0 H 547.56 V 101.5 h -2.0967 z m 2.0967,0 h 2.0967 V 101.5 H 547.56 Z m 4.1933,0 H 553.85 V 101.5 h -2.0967 z M 509.82,101.5 h 2.0967 V 99.40331 H 509.82 Z m 4.1933,0 h 2.0967 v -2.09669 h -2.0967 z m 2.0967,0 h 2.0967 V 99.40331 H 516.11 Z m 2.0967,0 h 2.0966 v -2.09669 h -2.0966 z m 4.1933,0 h 2.0967 V 99.40331 H 522.4 Z m 6.29,0 h 2.0967 V 99.40331 H 528.69 Z m 2.0967,0 h 2.0966 v -2.09669 h -2.0966 z m 8.3866,0 h 2.0967 v -2.09669 h -2.0967 z m 4.1934,0 h 2.0966 v -2.09669 h -2.0966 z m 2.0966,0 h 2.0967 v -2.09669 h -2.0967 z m 2.0967,0 h 2.0967 V 99.40331 H 547.56 Z m 4.1933,0 h 2.0967 v -2.09669 h -2.0967 z M 509.82,99.40331 h 2.0967 V 97.30664 H 509.82 Z m 4.1933,0 h 2.0967 v -2.09667 h -2.0967 z m 2.0967,0 h 2.0967 V 97.30664 H 516.11 Z m 2.0967,0 h 2.0966 v -2.09667 h -2.0966 z m 4.1933,0 h 2.0967 V 97.30664 H 522.4 Z m 4.1933,0 h 2.0967 v -2.09667 h -2.0967 z m 2.0967,0 h 2.0967 V 97.30664 H 528.69 Z m 2.0967,0 h 2.0966 v -2.09667 h -2.0966 z m 4.1933,0 h 2.0967 V 97.30664 H 534.98 Z m 4.1933,0 h 2.0967 v -2.09667 h -2.0967 z m 4.1934,0 h 2.0966 v -2.09667 h -2.0966 z m 2.0966,0 h 2.0967 v -2.09667 h -2.0967 z m 2.0967,0 h 2.0967 V 97.30664 H 547.56 Z m 4.1933,0 h 2.0967 v -2.09667 h -2.0967 z M 509.82,97.30664 h 2.0967 V 95.20998 H 509.82 Z m 12.58,0 h 2.0967 V 95.20998 H 522.4 Z m 4.1933,0 h 2.0967 v -2.09666 h -2.0967 z m 2.0967,0 h 2.0967 V 95.20998 H 528.69 Z m 6.29,0 h 2.0967 V 95.20998 H 534.98 Z m 4.1933,0 h 2.0967 v -2.09666 h -2.0967 z m 12.58,0 h 2.0967 v -2.09666 h -2.0967 z M 509.82,95.20998 h 2.0967 V 93.11331 H 509.82 Z m 2.0967,0 h 2.0966 v -2.09667 h -2.0966 z m 2.0966,0 h 2.0967 v -2.09667 h -2.0967 z m 2.0967,0 h 2.0967 V 93.11331 H 516.11 Z m 2.0967,0 h 2.0966 v -2.09667 h -2.0966 z m 2.0966,0 H 522.4 v -2.09667 h -2.0967 z m 2.0967,0 h 2.0967 V 93.11331 H 522.4 Z m 4.1933,0 h 2.0967 v -2.09667 h -2.0967 z m 4.1934,0 h 2.0966 v -2.09667 h -2.0966 z m 4.1933,0 h 2.0967 V 93.11331 H 534.98 Z m 4.1933,0 h 2.0967 v -2.09667 h -2.0967 z m 2.0967,0 h 2.0967 V 93.11331 H 541.27 Z m 2.0967,0 h 2.0966 v -2.09667 h -2.0966 z m 2.0966,0 h 2.0967 v -2.09667 h -2.0967 z m 2.0967,0 h 2.0967 V 93.11331 H 547.56 Z m 2.0967,0 h 2.0966 v -2.09667 h -2.0966 z m 2.0966,0 h 2.0967 v -2.09667 h -2.0967 z M 528.69,93.11331 h 2.0967 V 91.01665 H 528.69 Z m 4.1933,0 h 2.0967 v -2.09666 h -2.0967 z m -20.9666,-2.09666 h 2.0966 v -2.09667 h -2.0966 z m 2.0966,0 h 2.0967 v -2.09667 h -2.0967 z m 2.0967,0 h 2.0967 V 88.91998 H 516.11 Z m 2.0967,0 h 2.0966 v -2.09667 h -2.0966 z m 2.0966,0 H 522.4 v -2.09667 h -2.0967 z m 2.0967,0 h 2.0967 V 88.91998 H 522.4 Z m 2.0967,0 h 2.0966 v -2.09667 h -2.0966 z m 8.3866,0 h 2.0967 v -2.09667 h -2.0967 z m 8.3867,0 h 2.0967 V 88.91998 H 541.27 Z m 2.0967,0 h 2.0966 v -2.09667 h -2.0966 z m 8.3866,0 h 2.0967 v -2.09667 h -2.0967 z m -39.8366,-2.09667 h 2.0966 v -2.09667 h -2.0966 z m 4.1933,0 h 2.0967 V 86.82331 H 516.11 Z m 4.1933,0 H 522.4 v -2.09667 h -2.0967 z m 6.29,0 h 2.0967 v -2.09667 h -2.0967 z m 6.29,0 h 2.0967 v -2.09667 h -2.0967 z m 2.0967,0 h 2.0967 V 86.82331 H 534.98 Z m 6.29,0 h 2.0967 V 86.82331 H 541.27 Z m 6.29,0 h 2.0967 V 86.82331 H 547.56 Z m 2.0967,0 h 2.0966 v -2.09667 h -2.0966 z m -37.74,-2.09667 h 2.0966 v -2.09666 h -2.0966 z m 2.0966,0 h 2.0967 v -2.09666 h -2.0967 z m 2.0967,0 h 2.0967 V 84.72665 H 516.11 Z m 4.1933,0 H 522.4 v -2.09666 h -2.0967 z m 2.0967,0 h 2.0967 V 84.72665 H 522.4 Z m 4.1933,0 h 2.0967 v -2.09666 h -2.0967 z m 2.0967,0 h 2.0967 V 84.72665 H 528.69 Z m 4.1933,0 h 2.0967 v -2.09666 h -2.0967 z m 2.0967,0 h 2.0967 V 84.72665 H 534.98 Z m 6.29,0 h 2.0967 V 84.72665 H 541.27 Z m 6.29,0 h 2.0967 V 84.72665 H 547.56 Z m 2.0967,0 h 2.0966 v -2.09666 h -2.0966 z M 509.82,84.72665 h 2.0967 V 82.62998 H 509.82 Z m 4.1933,0 h 2.0967 v -2.09667 h -2.0967 z m 10.4834,0 h 2.0966 v -2.09667 h -2.0966 z m 6.29,0 h 2.0966 v -2.09667 h -2.0966 z m 2.0966,0 h 2.0967 v -2.09667 h -2.0967 z m 2.0967,0 h 2.0967 V 82.62998 H 534.98 Z m 6.29,0 h 2.0967 V 82.62998 H 541.27 Z m 10.4833,0 h 2.0967 v -2.09667 h -2.0967 z M 509.82,82.62998 h 2.0967 V 80.53331 H 509.82 Z m 2.0967,0 h 2.0966 v -2.09667 h -2.0966 z m 2.0966,0 h 2.0967 v -2.09667 h -2.0967 z m 8.3867,0 h 2.0967 V 80.53331 H 522.4 Z m 2.0967,0 h 2.0966 v -2.09667 h -2.0966 z m 2.0966,0 h 2.0967 v -2.09667 h -2.0967 z m 2.0967,0 h 2.0967 V 80.53331 H 528.69 Z m 14.6767,0 h 2.0966 v -2.09667 h -2.0966 z m 6.29,0 h 2.0966 v -2.09667 h -2.0966 z m -23.0634,-2.09667 h 2.0967 v -2.09666 h -2.0967 z m 2.0967,0 h 2.0967 V 78.43665 H 528.69 Z m 2.0967,0 h 2.0966 v -2.09666 h -2.0966 z m 2.0966,0 h 2.0967 v -2.09666 h -2.0967 z m 8.3867,0 h 2.0967 V 78.43665 H 541.27 Z m 2.0967,0 h 2.0966 v -2.09666 h -2.0966 z m 4.1933,0 h 2.0967 V 78.43665 H 547.56 Z m -37.74,-2.09666 h 2.0967 V 76.33998 H 509.82 Z m 2.0967,0 h 2.0966 v -2.09667 h -2.0966 z m 2.0966,0 h 2.0967 v -2.09667 h -2.0967 z m 2.0967,0 h 2.0967 V 76.33998 H 516.11 Z m 2.0967,0 h 2.0966 v -2.09667 h -2.0966 z m 2.0966,0 H 522.4 v -2.09667 h -2.0967 z m 2.0967,0 h 2.0967 V 76.33998 H 522.4 Z m 4.1933,0 h 2.0967 v -2.09667 h -2.0967 z m 16.7734,0 h 2.0966 v -2.09667 h -2.0966 z m 2.0966,0 h 2.0967 v -2.09667 h -2.0967 z m 4.1934,0 h 2.0966 v -2.09667 h -2.0966 z M 509.82,76.33998 h 2.0967 V 74.24331 H 509.82 Z m 12.58,0 h 2.0967 V 74.24331 H 522.4 Z m 4.1933,0 h 2.0967 v -2.09667 h -2.0967 z m 2.0967,0 h 2.0967 V 74.24331 H 528.69 Z m 4.1933,0 h 2.0967 v -2.09667 h -2.0967 z m 8.3867,0 h 2.0967 V 74.24331 H 541.27 Z m 4.1933,0 h 2.0967 v -2.09667 h -2.0967 z m 2.0967,0 h 2.0967 V 74.24331 H 547.56 Z m -37.74,-2.09667 h 2.0967 V 72.14665 H 509.82 Z m 4.1933,0 h 2.0967 v -2.09666 h -2.0967 z m 2.0967,0 h 2.0967 V 72.14665 H 516.11 Z m 2.0967,0 h 2.0966 v -2.09666 h -2.0966 z m 4.1933,0 h 2.0967 V 72.14665 H 522.4 Z m 4.1933,0 h 2.0967 v -2.09666 h -2.0967 z m 8.3867,0 h 2.0967 V 72.14665 H 534.98 Z m 8.3867,0 h 2.0966 v -2.09666 h -2.0966 z m 2.0966,0 h 2.0967 v -2.09666 h -2.0967 z m 2.0967,0 h 2.0967 V 72.14665 H 547.56 Z m 4.1933,0 h 2.0967 v -2.09666 h -2.0967 z M 509.82,72.14665 h 2.0967 V 70.04998 H 509.82 Z m 4.1933,0 h 2.0967 v -2.09667 h -2.0967 z m 2.0967,0 h 2.0967 V 70.04998 H 516.11 Z m 2.0967,0 h 2.0966 v -2.09667 h -2.0966 z m 4.1933,0 h 2.0967 V 70.04998 H 522.4 Z m 4.1933,0 h 2.0967 v -2.09667 h -2.0967 z m 2.0967,0 h 2.0967 V 70.04998 H 528.69 Z m 2.0967,0 h 2.0966 v -2.09667 h -2.0966 z m 4.1933,0 h 2.0967 V 70.04998 H 534.98 Z m 10.4833,0 h 2.0967 v -2.09667 h -2.0967 z M 509.82,70.04998 h 2.0967 V 67.95331 H 509.82 Z m 4.1933,0 h 2.0967 v -2.09667 h -2.0967 z m 2.0967,0 h 2.0967 V 67.95331 H 516.11 Z m 2.0967,0 h 2.0966 v -2.09667 h -2.0966 z m 4.1933,0 h 2.0967 V 67.95331 H 522.4 Z m 4.1933,0 h 2.0967 v -2.09667 h -2.0967 z m 2.0967,0 h 2.0967 V 67.95331 H 528.69 Z m 6.29,0 h 2.0967 V 67.95331 H 534.98 Z m 6.29,0 h 2.0967 V 67.95331 H 541.27 Z m 6.29,0 h 2.0967 V 67.95331 H 547.56 Z m -37.74,-2.09667 h 2.0967 V 65.85665 H 509.82 Z m 12.58,0 h 2.0967 V 65.85665 H 522.4 Z m 4.1933,0 h 2.0967 v -2.09666 h -2.0967 z m 2.0967,0 h 2.0967 V 65.85665 H 528.69 Z m 2.0967,0 h 2.0966 v -2.09666 h -2.0966 z m 4.1933,0 h 2.0967 V 65.85665 H 534.98 Z m 8.3867,0 h 2.0966 v -2.09666 h -2.0966 z m 2.0966,0 h 2.0967 v -2.09666 h -2.0967 z m 6.29,0 h 2.0967 v -2.09666 h -2.0967 z M 509.82,65.85665 h 2.0967 V 63.75998 H 509.82 Z m 2.0967,0 h 2.0966 v -2.09667 h -2.0966 z m 2.0966,0 h 2.0967 v -2.09667 h -2.0967 z m 2.0967,0 h 2.0967 V 63.75998 H 516.11 Z m 2.0967,0 h 2.0966 v -2.09667 h -2.0966 z m 2.0966,0 H 522.4 v -2.09667 h -2.0967 z m 2.0967,0 h 2.0967 V 63.75998 H 522.4 Z m 6.29,0 h 2.0967 V 63.75998 H 528.69 Z m 6.29,0 h 2.0967 V 63.75998 H 534.98 Z"
         id="path300"
         inkscape:connector-curvature="0" /></clipPath><clipPath
       clipPathUnits="userSpaceOnUse"
       id="clipPath308"><path
         d="M 0,0 H 595 V 842 H 0 Z"
         id="path306"
         inkscape:connector-curvature="0" /></clipPath><clipPath
       clipPathUnits="userSpaceOnUse"
       id="clipPath318"><path
         d="M 0,0 H 595 V 842 H 0 Z"
         id="path316"
         inkscape:connector-curvature="0" /></clipPath></defs><sodipodi:namedview
     pagecolor="#ffffff"
     bordercolor="#666666"
     borderopacity="1"
     objecttolerance="10"
     gridtolerance="10"
     guidetolerance="10"
     inkscape:pageopacity="0"
     inkscape:pageshadow="2"
     inkscape:window-width="1920"
     inkscape:window-height="988"
     id="namedview4"
     showgrid="false"
     inkscape:zoom="0.70710678"
     inkscape:cx="-44.964346"
     inkscape:cy="294.06573"
     inkscape:window-x="0"
     inkscape:window-y="31"
     inkscape:window-maximized="1"
     inkscape:current-layer="g1028"
     units="cm" /><g
     id="g10"
     inkscape:groupmode="layer"
     inkscape:label="Rocketbook-A4-Music"
     transform="matrix(1.3333333,0,0,-1.3333333,0,529.13382)"><g
       id="g12" /><path
       style="opacity:1;fill:#000000;fill-opacity:1;stroke:none;stroke-width:0.35744777;stroke-opacity:1"
       d="M 8.752332,389.82839 V 7.0219519 H 243.53113 V 389.82839 Z m 0.8687231,-1.03467 H 242.56567 V 8.2095703 H 9.6210551 Z"
       id="rect973"
       inkscape:connector-curvature="0" /><g
       id="g1028"
       transform="matrix(0.41735662,0,0,0.41735662,-6.2572272,-1.8638572)"><g
         transform="translate(7.7970246,-29.398513)"
         id="g1054"><g
           id="g52"><g
             id="g54"
             clip-path="url(#clipPath58)"><g
               id="g60"
               transform="matrix(1,0,0,-1,59.3422,110.4937)"><path
                 d="m 24.778,12.389 c 0,6.842 -5.547,12.389 -12.389,12.389 C 5.547,24.778 0,19.231 0,12.389 0,5.547 5.547,0 12.389,0 19.231,0 24.778,5.547 24.778,12.389 Z"
                 style="fill:none;stroke:#373835;stroke-width:0.49700001;stroke-linecap:round;stroke-linejoin:round;stroke-miterlimit:10;stroke-dasharray:2.085, 3.474;stroke-dashoffset:0;stroke-opacity:1"
                 id="path62"
                 inkscape:connector-curvature="0" /></g></g></g><g
           id="g64"><g
             id="g66"
             clip-path="url(#clipPath70)"><g
               id="g72"
               clip-path="url(#clipPath76)"><path
                 d="M 60.7353,63.73759 H 82.7277 V 87.1405 H 60.7353 Z"
                 style="fill:#373835;fill-opacity:1;fill-rule:nonzero;stroke:none"
                 id="path78"
                 inkscape:connector-curvature="0" /></g></g></g><g
           id="g80"><g
             id="g82"
             clip-path="url(#clipPath86)"><g
               id="g88"
               clip-path="url(#clipPath92)"><path
                 d="m 66.2297,56.8272 h 10.995 v 18.006 h -10.995 z"
                 style="fill:#373835;fill-opacity:1;fill-rule:nonzero;stroke:none"
                 id="path94"
                 inkscape:connector-curvature="0" /></g></g></g><g
           id="g96"><g
             id="g98"
             clip-path="url(#clipPath102)"><g
               id="g104"
               clip-path="url(#clipPath108)"><path
                 d="m 63.7068,59.0522 h 10.995 v 15.781 h -10.995 z"
                 style="fill:#373835;fill-opacity:1;fill-rule:nonzero;stroke:none"
                 id="path110"
                 inkscape:connector-curvature="0" /></g></g></g><g
           id="g112"><g
             id="g114"
             clip-path="url(#clipPath118)"><g
               id="g120"
               clip-path="url(#clipPath124)"><path
                 d="m 68.7508,59.0522 h 10.995 v 15.781 h -10.995 z"
                 style="fill:#373835;fill-opacity:1;fill-rule:nonzero;stroke:none"
                 id="path126"
                 inkscape:connector-curvature="0" /></g></g></g><g
           id="g128"><g
             id="g130"
             clip-path="url(#clipPath134)"><g
               id="g136"
               transform="matrix(1,0,0,-1,191.7663,110.4937)"><path
                 d="m 24.778,12.389 c 0,6.842 -5.547,12.389 -12.389,12.389 C 5.547,24.778 0,19.231 0,12.389 0,5.547 5.547,0 12.389,0 19.231,0 24.778,5.547 24.778,12.389 Z"
                 style="fill:none;stroke:#373835;stroke-width:0.49700001;stroke-linecap:butt;stroke-linejoin:miter;stroke-miterlimit:10;stroke-dasharray:2.085, 3.474;stroke-dashoffset:0;stroke-opacity:1"
                 id="path138"
                 inkscape:connector-curvature="0" /></g></g></g><g
           id="g140"><g
             id="g142"
             clip-path="url(#clipPath146)"><g
               id="g148"
               clip-path="url(#clipPath152)"><path
                 d="m 191.9622,59.0956 h 24.386 v 27.68964 h -24.386 z"
                 style="fill:#373835;fill-opacity:1;fill-rule:nonzero;stroke:none"
                 id="path154"
                 inkscape:connector-curvature="0" /></g></g></g><g
           id="g156"><g
             id="g158"
             clip-path="url(#clipPath162)"><g
               id="g164"
               transform="matrix(1,0,0,-1,324.6701,110.4937)"><path
                 d="m 24.778,12.389 c 0,6.842 -5.547,12.389 -12.389,12.389 C 5.547,24.778 0,19.231 0,12.389 0,5.547 5.547,0 12.389,0 19.231,0 24.778,5.547 24.778,12.389 Z"
                 style="fill:none;stroke:#373835;stroke-width:0.49700001;stroke-linecap:butt;stroke-linejoin:miter;stroke-miterlimit:10;stroke-dasharray:2.085, 3.474;stroke-dashoffset:0;stroke-opacity:1"
                 id="path166"
                 inkscape:connector-curvature="0" /></g></g></g><g
           id="g168"><g
             id="g170"
             clip-path="url(#clipPath174)"><g
               id="g176"
               clip-path="url(#clipPath180)"><path
                 d="m 325.0732,57.7391 h 23.97176 v 27.445 H 325.0732 Z"
                 style="fill:#373835;fill-opacity:1;fill-rule:nonzero;stroke:none"
                 id="path182"
                 inkscape:connector-curvature="0" /></g></g></g><g
           id="g184"><g
             id="g186"
             clip-path="url(#clipPath190)"><g
               id="g192"
               clip-path="url(#clipPath196)"><path
                 d="m 124.8777,58.604 h 25.65373 V 84.139 H 124.8777 Z"
                 style="fill:#373835;fill-opacity:1;fill-rule:nonzero;stroke:none"
                 id="path198"
                 inkscape:connector-curvature="0" /></g></g></g><g
           id="g200"><g
             id="g202"
             clip-path="url(#clipPath206)"><g
               id="g208"
               transform="matrix(1,0,0,-1,125.3157,110.4937)"><path
                 d="m 24.778,12.389 c 0,6.842 -5.547,12.389 -12.389,12.389 C 5.547,24.778 0,19.231 0,12.389 0,5.547 5.547,0 12.389,0 19.231,0 24.778,5.547 24.778,12.389 Z"
                 style="fill:none;stroke:#373835;stroke-width:0.49700001;stroke-linecap:butt;stroke-linejoin:miter;stroke-miterlimit:10;stroke-dasharray:2.085, 3.474;stroke-dashoffset:0;stroke-opacity:1"
                 id="path210"
                 inkscape:connector-curvature="0" /></g></g></g><g
           id="g212"><g
             id="g214"
             clip-path="url(#clipPath218)"><g
               id="g220"
               clip-path="url(#clipPath224)"><path
                 d="m 258.5699,59.1281 h 24.077 v 27.191 h -24.077 z"
                 style="fill:#373835;fill-opacity:1;fill-rule:nonzero;stroke:none"
                 id="path226"
                 inkscape:connector-curvature="0" /></g></g></g><g
           id="g228"><g
             id="g230"
             clip-path="url(#clipPath234)"><g
               id="g236"
               transform="matrix(1,0,0,-1,258.2195,110.4937)"><path
                 d="m 24.778,12.389 c 0,6.842 -5.547,12.389 -12.389,12.389 C 5.547,24.778 0,19.231 0,12.389 0,5.547 5.547,0 12.389,0 19.231,0 24.778,5.547 24.778,12.389 Z"
                 style="fill:none;stroke:#373835;stroke-width:0.49700001;stroke-linecap:butt;stroke-linejoin:miter;stroke-miterlimit:10;stroke-dasharray:2.085, 3.474;stroke-dashoffset:0;stroke-opacity:1"
                 id="path238"
                 inkscape:connector-curvature="0" /></g></g></g><g
           id="g240"><g
             id="g242"
             clip-path="url(#clipPath246)"><g
               id="g248"
               clip-path="url(#clipPath252)"><path
                 d="m 390.7395,60.502 h 25.541 v 24.877 h -25.541 z"
                 style="fill:#373835;fill-opacity:1;fill-rule:nonzero;stroke:none"
                 id="path254"
                 inkscape:connector-curvature="0" /></g></g></g><g
           id="g256"><g
             id="g258"
             clip-path="url(#clipPath262)"><g
               id="g264"
               transform="matrix(1,0,0,-1,391.1207,110.4937)"><path
                 d="m 24.778,12.389 c 0,6.842 -5.547,12.389 -12.389,12.389 C 5.547,24.778 0,19.231 0,12.389 0,5.547 5.547,0 12.389,0 19.231,0 24.778,5.547 24.778,12.389 Z"
                 style="fill:none;stroke:#373835;stroke-width:0.49700001;stroke-linecap:butt;stroke-linejoin:miter;stroke-miterlimit:10;stroke-dasharray:2.085, 3.474;stroke-dashoffset:0;stroke-opacity:1"
                 id="path266"
                 inkscape:connector-curvature="0" /></g></g></g><g
           id="g268"><g
             id="g270"
             clip-path="url(#clipPath274)"><g
               id="g276"
               clip-path="url(#clipPath280)"><path
                 d="m 457.8267,59.9722 h 24.26 v 24.24678 h -24.26 z"
                 style="fill:#373835;fill-opacity:1;fill-rule:nonzero;stroke:none"
                 id="path282"
                 inkscape:connector-curvature="0" /></g></g></g><g
           id="g284"><g
             id="g286"
             clip-path="url(#clipPath290)"><g
               id="g292"
               transform="matrix(1,0,0,-1,457.5739,110.4937)"><path
                 d="m 24.778,12.389 c 0,6.842 -5.547,12.389 -12.389,12.389 C 5.547,24.778 0,19.231 0,12.389 0,5.547 5.547,0 12.389,0 19.231,0 24.778,5.547 24.778,12.389 Z"
                 style="fill:none;stroke:#373835;stroke-width:0.49700001;stroke-linecap:butt;stroke-linejoin:miter;stroke-miterlimit:10;stroke-dasharray:2.085, 3.474;stroke-dashoffset:0;stroke-opacity:1"
                 id="path294"
                 inkscape:connector-curvature="0" /></g></g></g></g><g
         transform="translate(30.101674,-28.500001)"
         id="g296"><g
           clip-path="url(#clipPath302)"
           id="g298"><g
             clip-path="url(#clipPath308)"
             id="g304"><path
               inkscape:connector-curvature="0"
               id="path310"
               style="fill:#000000;fill-opacity:1;fill-rule:nonzero;stroke:none"
               d="m 504.82,58.75998 h 54.03 v 54.03 h -54.03 z" /></g></g></g></g></g></svg>